# This file uses centimeters as units for non-parametric coordinates.

mtllib tree.mtl
g default
v 5.108869 4.000984 -8.557559
v -5.108868 4.000982 -8.557554
v -10.217740 4.000982 0.000000
v -5.108868 4.000982 8.557554
v 5.108869 4.000984 8.557559
v 10.217737 4.000984 0.000000
v 0.000000 14.218729 0.000005
v 4.556244 9.109833 -7.631897
v -4.556244 9.109833 -7.631897
v -9.112488 9.109833 0.000000
v -4.556259 9.109833 7.631897
v 4.556244 9.109833 7.631927
v 9.112488 9.109833 0.000000
v 0.000000 18.222351 0.000000
v 3.375000 13.666077 -5.653259
v -3.375000 13.666077 -5.653275
v -6.750000 13.666077 0.000000
v -3.375000 13.666077 5.653259
v 3.375000 13.666077 5.653275
v 6.750000 13.666077 0.000000
v 0.000000 20.416077 0.000000
v 2.500008 17.041077 -4.187607
v -2.499992 17.041077 -4.187607
v -5.000000 17.041077 0.000000
v -2.500000 17.041077 4.187607
v 2.500000 17.041077 4.187607
v 5.000000 17.041077 0.000000
v 0.000000 22.041077 0.000000
v -0.937500 0.000000 -0.937500
v 0.937500 0.000000 -0.937500
v -0.937500 0.000000 0.937500
v 0.937500 0.000000 0.937500
v -0.937500 4.514247 0.937500
v 0.937500 4.514247 0.937500
v -0.937500 4.514247 -0.937500
v 0.937500 4.514247 -0.937500
vt 0.750000 0.250000
vt 0.625000 0.466506
vt 0.625000 0.033494
vt 0.375000 0.033494
vt 0.375000 0.466506
vt 0.250000 0.250000
vt 0.250000 0.500000
vt 0.333333 0.500000
vt 0.500000 1.000000
vt 0.416667 0.500000
vt 0.500000 0.500000
vt 0.583333 0.500000
vt 0.666667 0.500000
vt 0.750000 0.500000
vt 0.750000 0.250000
vt 0.625000 0.466506
vt 0.625000 0.033494
vt 0.375000 0.033494
vt 0.375000 0.466506
vt 0.250000 0.250000
vt 0.250000 0.500000
vt 0.333333 0.500000
vt 0.500000 1.000000
vt 0.416667 0.500000
vt 0.500000 0.500000
vt 0.583333 0.500000
vt 0.666667 0.500000
vt 0.750000 0.500000
vt 0.750000 0.250000
vt 0.625000 0.466506
vt 0.625000 0.033494
vt 0.375000 0.033494
vt 0.375000 0.466506
vt 0.250000 0.250000
vt 0.250000 0.500000
vt 0.333333 0.500000
vt 0.500000 1.000000
vt 0.416667 0.500000
vt 0.500000 0.500000
vt 0.583333 0.500000
vt 0.666667 0.500000
vt 0.750000 0.500000
vt 0.750000 0.250000
vt 0.625000 0.466506
vt 0.625000 0.033494
vt 0.375000 0.033494
vt 0.375000 0.466506
vt 0.250000 0.250000
vt 0.250000 0.500000
vt 0.333333 0.500000
vt 0.500000 1.000000
vt 0.416667 0.500000
vt 0.500000 0.500000
vt 0.583333 0.500000
vt 0.666667 0.500000
vt 0.750000 0.500000
vt 0.375000 0.000000
vt 0.625000 0.000000
vt 0.375000 0.250000
vt 0.625000 0.250000
vt 0.375000 0.500000
vt 0.625000 0.500000
vt 0.375000 0.750000
vt 0.625000 0.750000
vt 0.375000 1.000000
vt 0.625000 1.000000
vt 0.875000 0.000000
vt 0.875000 0.250000
vt 0.125000 0.000000
vt 0.125000 0.250000
vn 0.000000 -1.000000 0.000000
vn 0.000000 -1.000000 0.000000
vn 0.000000 -1.000000 0.000000
vn 0.000000 -1.000000 0.000000
vn 0.000000 -1.000000 0.000000
vn 0.000000 -1.000000 0.000000
vn -0.000000 0.642077 -0.766641
vn -0.000000 0.642077 -0.766641
vn -0.000000 0.642077 -0.766641
vn -0.651440 0.651440 -0.388911
vn -0.651440 0.651440 -0.388911
vn -0.651440 0.651440 -0.388911
vn -0.651440 0.651440 0.388911
vn -0.651440 0.651440 0.388911
vn -0.651440 0.651440 0.388911
vn -0.000000 0.642076 0.766641
vn -0.000000 0.642076 0.766641
vn -0.000000 0.642076 0.766641
vn 0.651441 0.651440 0.388911
vn 0.651440 0.651440 0.388911
vn 0.651440 0.651440 0.388911
vn 0.651440 0.651440 -0.388910
vn 0.651440 0.651440 -0.388910
vn 0.651440 0.651440 -0.388910
vn 0.000000 -1.000000 0.000000
vn 0.000000 -1.000000 0.000000
vn 0.000000 -1.000000 0.000000
vn 0.000000 -1.000000 0.000000
vn 0.000000 -1.000000 0.000000
vn 0.000000 -1.000000 0.000000
vn 0.000000 0.642076 -0.766641
vn 0.000000 0.642076 -0.766641
vn 0.000000 0.642076 -0.766641
vn -0.651441 0.651439 -0.388911
vn -0.651441 0.651439 -0.388911
vn -0.651441 0.651439 -0.388911
vn -0.651442 0.651439 0.388909
vn -0.651442 0.651439 0.388910
vn -0.651442 0.651439 0.388910
vn -0.000003 0.642076 0.766641
vn -0.000003 0.642077 0.766641
vn -0.000003 0.642076 0.766641
vn 0.651442 0.651439 0.388909
vn 0.651442 0.651439 0.388909
vn 0.651442 0.651439 0.388909
vn 0.651441 0.651439 -0.388911
vn 0.651441 0.651439 -0.388911
vn 0.651441 0.651439 -0.388911
vn 0.000000 -1.000000 0.000000
vn 0.000000 -1.000000 0.000000
vn 0.000000 -1.000000 0.000000
vn 0.000000 -1.000000 0.000000
vn 0.000000 -1.000000 0.000000
vn 0.000000 -1.000000 0.000000
vn 0.000002 0.642077 -0.766640
vn 0.000002 0.642077 -0.766640
vn 0.000002 0.642077 -0.766640
vn -0.651441 0.651441 -0.388909
vn -0.651441 0.651441 -0.388909
vn -0.651441 0.651441 -0.388909
vn -0.651440 0.651440 0.388910
vn -0.651440 0.651440 0.388910
vn -0.651440 0.651440 0.388910
vn -0.000002 0.642077 0.766640
vn -0.000002 0.642077 0.766640
vn -0.000002 0.642077 0.766640
vn 0.651441 0.651441 0.388909
vn 0.651441 0.651441 0.388909
vn 0.651441 0.651441 0.388909
vn 0.651440 0.651440 -0.388910
vn 0.651440 0.651440 -0.388910
vn 0.651440 0.651440 -0.388910
vn 0.000000 -1.000000 0.000000
vn 0.000000 -1.000000 0.000000
vn 0.000000 -1.000000 0.000000
vn 0.000000 -1.000000 0.000000
vn 0.000000 -1.000000 0.000000
vn 0.000000 -1.000000 0.000000
vn 0.000000 0.642077 -0.766640
vn 0.000000 0.642077 -0.766640
vn 0.000000 0.642077 -0.766640
vn -0.651440 0.651440 -0.388911
vn -0.651440 0.651440 -0.388911
vn -0.651440 0.651440 -0.388911
vn -0.651440 0.651440 0.388910
vn -0.651440 0.651440 0.388910
vn -0.651440 0.651440 0.388910
vn 0.000000 0.642077 0.766640
vn 0.000000 0.642077 0.766640
vn 0.000000 0.642077 0.766640
vn 0.651440 0.651440 0.388910
vn 0.651440 0.651440 0.388910
vn 0.651440 0.651440 0.388910
vn 0.651441 0.651441 -0.388909
vn 0.651441 0.651441 -0.388909
vn 0.651441 0.651441 -0.388909
vn 0.000000 0.000000 1.000000
vn 0.000000 0.000000 1.000000
vn 0.000000 0.000000 1.000000
vn 0.000000 0.000000 1.000000
vn 0.000000 0.000000 -1.000000
vn 0.000000 0.000000 -1.000000
vn 0.000000 0.000000 -1.000000
vn 0.000000 0.000000 -1.000000
vn 1.000000 0.000000 0.000000
vn 1.000000 0.000000 0.000000
vn 1.000000 0.000000 0.000000
vn 1.000000 0.000000 0.000000
vn -1.000000 0.000000 0.000000
vn -1.000000 0.000000 0.000000
vn -1.000000 0.000000 0.000000
vn -1.000000 0.000000 0.000000
s 1
g polySurface12
usemtl lambert2SG
f 6/1/1 5/2/2 1/3/3
f 1/3/3 5/2/2 2/4/4
f 5/2/2 4/5/5 2/4/4
f 4/5/5 3/6/6 2/4/4
s off
f 1/7/7 2/8/8 7/9/9
f 2/8/10 3/10/11 7/9/12
f 3/10/13 4/11/14 7/9/15
f 4/11/16 5/12/17 7/9/18
f 5/12/19 6/13/20 7/9/21
f 6/13/22 1/14/23 7/9/24
s 2
f 13/15/25 12/16/26 8/17/27
f 8/17/27 12/16/26 9/18/28
f 12/16/26 11/19/29 9/18/28
f 11/19/29 10/20/30 9/18/28
s off
f 8/21/31 9/22/32 14/23/33
f 9/22/34 10/24/35 14/23/36
f 10/24/37 11/25/38 14/23/39
f 11/25/40 12/26/41 14/23/42
f 12/26/43 13/27/44 14/23/45
f 13/27/46 8/28/47 14/23/48
s 3
f 20/29/49 19/30/50 15/31/51
f 15/31/51 19/30/50 16/32/52
f 19/30/50 18/33/53 16/32/52
f 18/33/53 17/34/54 16/32/52
s off
f 15/35/55 16/36/56 21/37/57
f 16/36/58 17/38/59 21/37/60
f 17/38/61 18/39/62 21/37/63
f 18/39/64 19/40/65 21/37/66
f 19/40/67 20/41/68 21/37/69
f 20/41/70 15/42/71 21/37/72
s 4
f 27/43/73 26/44/74 22/45/75
f 22/45/75 26/44/74 23/46/76
f 26/44/74 25/47/77 23/46/76
f 25/47/77 24/48/78 23/46/76
s off
f 22/49/79 23/50/80 28/51/81
f 23/50/82 24/52/83 28/51/84
f 24/52/85 25/53/86 28/51/87
f 25/53/88 26/54/89 28/51/90
f 26/54/91 27/55/92 28/51/93
f 27/55/94 22/56/95 28/51/96
s 5
usemtl lambert3SG
f 31/59/97 32/60/98 33/61/99
f 33/61/99 32/60/98 34/62/100
s 6
f 35/63/101 36/64/102 29/65/103
f 29/65/103 36/64/102 30/66/104
s 7
f 30/58/105 36/67/106 32/60/107
f 32/60/107 36/67/106 34/68/108
s 8
f 35/69/109 29/57/110 33/70/111
f 33/70/111 29/57/110 31/59/112
