# This file uses centimeters as units for non-parametric coordinates.

mtllib wind_turbine_rotor.mtl
g default
v -23.557707 42.776802 4.593750
v -23.088957 41.964901 4.593750
v -5.877744 48.654198 4.593750
v -1.943860 53.090500 4.593750
v 0.491855 54.496754 4.593750
v -0.445645 56.120552 4.593750
v -23.557707 42.776802 4.593750
v -15.814755 44.865623 4.593750
v -16.846006 46.651802 4.593750
v -20.225813 43.130798 4.593750
v -20.905500 44.308052 4.593750
v -23.557707 42.776802 5.531250
v -23.088957 41.964901 5.531250
v -20.225813 43.130798 5.531250
v -20.905500 44.308052 5.531250
v -23.557707 42.776802 5.531250
v -15.814755 44.865623 5.531250
v -16.846006 46.651802 5.531250
v -5.877744 48.654198 5.531250
v -1.943860 53.090500 5.531250
v 0.491855 54.496754 5.531250
v -0.445645 56.120552 5.531250
v 0.882144 82.041451 4.593750
v -0.055356 82.041451 4.593750
v -2.867856 63.791462 4.593750
v -0.992856 58.166462 4.593750
v -0.992856 55.353951 4.593750
v 0.882144 55.353951 4.593750
v 0.882144 82.041451 4.593750
v -1.180356 74.291451 4.593750
v 0.882144 74.291451 4.593750
v -0.477231 78.978951 4.593750
v 0.882144 78.978951 4.593750
v 0.882144 82.041451 5.531250
v -0.055356 82.041451 5.531250
v -0.477231 78.978951 5.531250
v 0.882144 78.978951 5.531250
v 0.882144 82.041451 5.531250
v -1.180356 74.291451 5.531250
v 0.882144 74.291451 5.531250
v -2.867856 63.791462 5.531250
v -0.992856 58.166462 5.531250
v -0.992856 55.353951 5.531250
v 0.882144 55.353951 5.531250
v 22.666407 41.243599 4.593750
v 23.135157 42.055504 4.593750
v 8.736453 53.616188 4.593750
v 2.927554 54.804893 4.593750
v 0.491855 56.211143 4.593750
v -0.445645 54.587349 4.593750
v 22.666407 41.243599 4.593750
v 16.985956 46.904778 4.593750
v 15.954707 45.118599 4.593750
v 20.693888 43.952103 4.593750
v 20.014200 42.774849 4.593750
v 22.666407 41.243599 5.531250
v 23.135157 42.055504 5.531250
v 20.693888 43.952103 5.531250
v 20.014200 42.774849 5.531250
v 22.666407 41.243599 5.531250
v 16.985956 46.904778 5.531250
v 15.954707 45.118599 5.531250
v 8.736453 53.616188 5.531250
v 2.927554 54.804893 5.531250
v 0.491855 56.211143 5.531250
v -0.445645 54.587349 5.531250
v -1.875000 53.437500 4.125000
v 1.875000 53.437500 4.125000
v -1.875000 53.437508 6.000000
v 1.875000 53.437508 6.000000
v -1.875000 57.187500 6.000000
v 1.875000 57.187500 6.000000
v -1.875000 57.187500 4.125000
v 1.875000 57.187500 4.125000
v -0.937500 54.375000 7.875000
v 0.937500 54.375000 7.875000
v 0.937500 56.250000 7.875000
v -0.937500 56.250000 7.875000
vt 0.000000 0.000000
vt 0.043478 0.000000
vt 0.063043 0.104348
vt 0.000000 0.103448
vt 0.000000 0.000000
vt 0.000000 0.275862
vt 0.095652 0.278261
vt 0.173913 0.695652
vt 0.086957 0.913043
vt 0.000000 0.275862
vt 0.086957 1.000000
vt 0.000000 1.000000
vt 0.000000 0.000000
vt 0.000000 0.000000
vt 0.000000 0.103448
vt 0.063043 0.104348
vt 0.043478 0.000000
vt 0.000000 0.275862
vt 0.086957 0.913043
vt 0.173913 0.695652
vt 0.095652 0.278261
vt 0.000000 1.000000
vt 0.086957 1.000000
vt 0.000000 0.000000
vt 0.043478 0.000000
vt 0.063043 0.104348
vt 0.000000 0.103448
vt 0.000000 0.000000
vt 0.095652 0.278261
vt 0.173913 0.695652
vt 0.086957 0.913043
vt 0.000000 0.275862
vt 0.086957 1.000000
vt 0.000000 1.000000
vt 0.000000 0.275862
vt 0.000000 0.000000
vt 0.043478 0.000000
vt 0.063043 0.104348
vt 0.000000 0.103448
vt 0.000000 0.000000
vt 0.000000 0.275862
vt 0.095652 0.278261
vt 0.173913 0.695652
vt 0.086957 0.913043
vt 0.000000 0.275862
vt 0.086957 1.000000
vt 0.000000 1.000000
vt 0.000000 0.000000
vt 0.000000 0.000000
vt 0.000000 0.103448
vt 0.063043 0.104348
vt 0.043478 0.000000
vt 0.000000 0.275862
vt 0.086957 0.913043
vt 0.173913 0.695652
vt 0.095652 0.278261
vt 0.000000 1.000000
vt 0.086957 1.000000
vt 0.000000 0.000000
vt 0.043478 0.000000
vt 0.063043 0.104348
vt 0.000000 0.103448
vt 0.000000 0.000000
vt 0.095652 0.278261
vt 0.173913 0.695652
vt 0.086957 0.913043
vt 0.000000 0.275862
vt 0.086957 1.000000
vt 0.000000 1.000000
vt 0.000000 0.275862
vt 0.000000 0.000000
vt 0.043478 0.000000
vt 0.063043 0.104348
vt 0.000000 0.103448
vt 0.000000 0.000000
vt 0.000000 0.275862
vt 0.095652 0.278261
vt 0.173913 0.695652
vt 0.086957 0.913043
vt 0.000000 0.275862
vt 0.086957 1.000000
vt 0.000000 1.000000
vt 0.000000 0.000000
vt 0.000000 0.000000
vt 0.000000 0.103448
vt 0.063043 0.104348
vt 0.043478 0.000000
vt 0.000000 0.275862
vt 0.086957 0.913043
vt 0.173913 0.695652
vt 0.095652 0.278261
vt 0.000000 1.000000
vt 0.086957 1.000000
vt 0.000000 0.000000
vt 0.043478 0.000000
vt 0.063043 0.104348
vt 0.000000 0.103448
vt 0.000000 0.000000
vt 0.095652 0.278261
vt 0.173913 0.695652
vt 0.086957 0.913043
vt 0.000000 0.275862
vt 0.086957 1.000000
vt 0.000000 1.000000
vt 0.000000 0.275862
vt 0.375000 0.000000
vt 0.625000 0.000000
vt 0.625000 0.250000
vt 0.375000 0.250000
vt 0.375000 0.250000
vt 0.625000 0.250000
vt 0.625000 0.500000
vt 0.375000 0.500000
vt 0.375000 0.500000
vt 0.625000 0.500000
vt 0.625000 0.750000
vt 0.375000 0.750000
vt 0.875000 0.000000
vt 0.875000 0.250000
vt 0.125000 0.000000
vt 0.125000 0.250000
vn 0.000000 0.000000 0.000000
vn 0.000000 0.000000 1.000000
vn -0.000000 0.000000 1.000000
vn -0.000000 0.000000 1.000000
vn 0.000000 0.000000 0.000000
vn 0.000000 0.000000 1.000000
vn 0.000000 0.000000 1.000000
vn 0.000000 0.000000 1.000000
vn 0.000000 0.000000 1.000000
vn 0.000000 0.000000 1.000000
vn 0.000000 0.000000 1.000000
vn 0.000000 0.000000 -0.000000
vn 0.000000 0.000000 -0.000000
vn -0.000000 0.000000 -1.000000
vn -0.000000 0.000000 -1.000000
vn 0.000000 0.000000 -1.000000
vn -0.000000 0.000000 -1.000000
vn 0.000000 0.000000 -1.000000
vn 0.000000 0.000000 -1.000000
vn -0.000000 0.000000 -1.000000
vn 0.000000 0.000000 -1.000000
vn 0.000000 0.000000 -1.000000
vn -0.866026 -0.499999 0.000000
vn -0.866026 -0.499999 0.000000
vn -0.866026 -0.499999 0.000000
vn -0.866026 -0.499999 0.000000
vn 0.377139 -0.926157 0.000000
vn 0.370404 -0.928871 0.000000
vn 0.370404 -0.928871 0.000000
vn 0.377139 -0.926157 0.000000
vn -0.500000 0.866026 0.000000
vn -0.500000 0.866026 0.000000
vn -0.500000 0.866026 0.000000
vn -0.500000 0.866026 0.000000
vn 0.000000 0.000000 0.000000
vn 0.000000 0.000000 0.000000
vn 0.000000 0.000000 0.000000
vn 0.000000 0.000000 0.000000
vn 0.359257 -0.933239 0.000000
vn 0.510036 -0.860153 0.000000
vn 0.510036 -0.860153 0.000000
vn 0.359257 -0.933239 0.000000
vn 0.675961 -0.736938 0.000000
vn 0.675961 -0.736938 0.000000
vn -0.500000 0.866026 0.000000
vn -0.500000 0.866026 0.000000
vn 0.499998 -0.866027 0.000000
vn 0.499998 -0.866027 0.000000
vn -0.500000 0.866026 0.000000
vn -0.500000 0.866026 0.000000
vn 0.000000 0.000000 0.000000
vn 0.000000 0.000000 1.000000
vn 0.000000 0.000000 1.000000
vn 0.000000 0.000000 1.000000
vn 0.000000 0.000000 0.000000
vn 0.000000 0.000000 1.000000
vn 0.000000 0.000000 1.000000
vn 0.000000 0.000000 1.000000
vn 0.000000 0.000000 1.000000
vn 0.000000 0.000000 1.000000
vn 0.000000 0.000000 1.000000
vn 0.000000 0.000000 -0.000000
vn 0.000000 0.000000 -0.000000
vn 0.000000 0.000000 -1.000000
vn 0.000000 0.000000 -1.000000
vn 0.000000 0.000000 -1.000000
vn 0.000000 0.000000 -1.000000
vn 0.000000 0.000000 -1.000000
vn 0.000000 0.000000 -1.000000
vn 0.000000 0.000000 -1.000000
vn 0.000000 0.000000 -1.000000
vn 0.000000 0.000000 -1.000000
vn 0.000000 1.000000 0.000000
vn 0.000000 1.000000 0.000000
vn 0.000000 1.000000 0.000000
vn 0.000000 1.000000 0.000000
vn -0.990645 0.136466 0.000000
vn -0.989628 0.143656 0.000000
vn -0.989628 0.143656 0.000000
vn -0.990645 0.136466 0.000000
vn 1.000000 0.000000 0.000000
vn 1.000000 0.000000 0.000000
vn 1.000000 0.000000 0.000000
vn 1.000000 0.000000 0.000000
vn 0.000000 0.000000 0.000000
vn 0.000000 0.000000 0.000000
vn 0.000000 0.000000 0.000000
vn 0.000000 0.000000 0.000000
vn -0.987837 0.155493 0.000000
vn -0.999932 -0.011627 0.000000
vn -0.999932 -0.011627 0.000000
vn -0.987837 0.155493 0.000000
vn -0.976187 -0.216930 0.000000
vn -0.976187 -0.216930 0.000000
vn 1.000000 0.000000 0.000000
vn 1.000000 0.000000 0.000000
vn -1.000000 0.000000 0.000000
vn -1.000000 0.000000 0.000000
vn 1.000000 0.000000 0.000000
vn 1.000000 0.000000 0.000000
vn 0.000000 0.000000 0.000000
vn 0.000000 0.000000 1.000000
vn 0.000000 0.000000 1.000000
vn 0.000000 0.000000 1.000000
vn 0.000000 0.000000 0.000000
vn 0.000000 0.000000 1.000000
vn 0.000000 0.000000 1.000000
vn 0.000000 0.000000 1.000000
vn 0.000000 0.000000 1.000000
vn 0.000000 0.000000 1.000000
vn 0.000000 0.000000 1.000000
vn -0.000000 0.000000 -0.000000
vn -0.000000 0.000000 -0.000000
vn 0.000000 0.000000 -1.000000
vn 0.000000 0.000000 -1.000000
vn -0.000000 0.000000 -1.000000
vn 0.000000 0.000000 -1.000000
vn 0.000000 0.000000 -1.000000
vn 0.000000 0.000000 -1.000000
vn 0.000000 0.000000 -1.000000
vn 0.000000 0.000000 -1.000000
vn 0.000000 0.000000 -1.000000
vn 0.866027 -0.499997 0.000000
vn 0.866027 -0.499997 0.000000
vn 0.866027 -0.499997 0.000000
vn 0.866027 -0.499997 0.000000
vn 0.613504 0.789692 0.000000
vn 0.619223 0.785215 0.000000
vn 0.619223 0.785215 0.000000
vn 0.613504 0.789692 0.000000
vn -0.500000 -0.866026 0.000000
vn -0.500000 -0.866026 0.000000
vn -0.500000 -0.866026 0.000000
vn -0.500000 -0.866026 0.000000
vn 0.000000 0.000000 0.000000
vn 0.000000 0.000000 0.000000
vn 0.000000 0.000000 0.000000
vn 0.000000 0.000000 0.000000
vn 0.628579 0.777745 0.000000
vn 0.489897 0.871780 0.000000
vn 0.489897 0.871780 0.000000
vn 0.628579 0.777745 0.000000
vn 0.300226 0.953868 0.000000
vn 0.300226 0.953868 0.000000
vn -0.500000 -0.866025 0.000000
vn -0.500000 -0.866025 0.000000
vn 0.500000 0.866026 0.000000
vn 0.500000 0.866026 0.000000
vn -0.500000 -0.866025 0.000000
vn -0.500000 -0.866025 0.000000
vn 0.000000 -1.000000 0.000004
vn 0.000000 -1.000000 0.000004
vn 0.000000 -0.984651 0.174535
vn 0.000000 -0.984651 0.174535
vn 0.000000 0.000000 1.000000
vn 0.000000 0.000000 1.000000
vn 0.000000 0.000000 1.000000
vn 0.000000 0.000000 1.000000
vn 0.000000 0.984651 0.174534
vn 0.000000 0.984651 0.174534
vn 0.000000 1.000000 0.000000
vn 0.000000 1.000000 0.000000
vn 1.000000 0.000000 0.000000
vn 1.000000 0.000000 0.000000
vn 0.984651 0.000000 0.174534
vn 0.984651 0.000000 0.174534
vn -1.000000 0.000000 0.000000
vn -1.000000 0.000000 0.000000
vn -0.984651 0.000000 0.174534
vn -0.984651 0.000000 0.174534
vn 0.000000 -0.894429 0.447210
vn 0.000000 -0.894429 0.447210
vn 0.894427 0.000000 0.447214
vn 0.894427 0.000000 0.447214
vn 0.000000 0.894427 0.447214
vn 0.000000 0.894427 0.447214
vn -0.894427 0.000000 0.447214
vn -0.894427 0.000000 0.447214
s 1
g polySurface56
usemtl initialShadingGroup
f 12/1/1 13/2/2 14/3/3 15/4/4 16/5/5
f 18/6/6 17/7/7 19/8/8 20/9/9
usemtl lambert3SG
f 15/4/4 14/3/3 17/7/7 18/10/6
usemtl initialShadingGroup
f 18/10/6 20/9/9 21/11/10 22/12/11
s 2
f 1/13/12 7/14/13 11/15/14 10/16/15 2/17/16
f 9/18/17 4/19/18 3/20/19 8/21/20
usemtl lambert3SG
f 11/15/14 9/18/17 8/21/20 10/16/15
usemtl initialShadingGroup
f 9/18/17 6/22/21 5/23/22 4/19/18
s off
f 1/24/23 2/25/24 13/2/25 12/1/26
s 4
f 2/25/27 10/26/28 14/3/29 13/2/30
s 5
f 11/27/31 7/28/32 16/5/33 15/4/34
s off
f 7/28/35 1/24/36 12/1/37 16/5/38
s 4
f 8/29/39 3/30/40 19/8/41 17/7/42
f 3/30/40 4/31/43 20/9/44 19/8/41
usemtl lambert3SG
f 10/26/28 8/29/39 17/7/42 14/3/29
s 5
f 9/32/45 11/27/31 15/4/34 18/10/46
s 4
usemtl initialShadingGroup
f 4/31/43 5/33/47 21/11/48 20/9/44
s 5
f 6/34/49 9/35/45 18/10/46 22/12/50
s 7
f 34/36/51 35/37/52 36/38/53 37/39/54 38/40/55
f 40/41/56 39/42/57 41/43/58 42/44/59
usemtl lambert3SG
f 37/39/54 36/38/53 39/42/57 40/45/56
usemtl initialShadingGroup
f 40/45/56 42/44/59 43/46/60 44/47/61
s 8
f 23/48/62 29/49/63 33/50/64 32/51/65 24/52/66
f 31/53/67 26/54/68 25/55/69 30/56/70
usemtl lambert3SG
f 33/50/64 31/53/67 30/56/70 32/51/65
usemtl initialShadingGroup
f 31/53/67 28/57/71 27/58/72 26/54/68
s off
f 23/59/73 24/60/74 35/37/75 34/36/76
s 10
f 24/60/77 32/61/78 36/38/79 35/37/80
s 11
f 33/62/81 29/63/82 38/40/83 37/39/84
s off
f 29/63/85 23/59/86 34/36/87 38/40/88
s 10
f 30/64/89 25/65/90 41/43/91 39/42/92
f 25/65/90 26/66/93 42/44/94 41/43/91
usemtl lambert3SG
f 32/61/78 30/64/89 39/42/92 36/38/79
s 11
f 31/67/95 33/62/81 37/39/84 40/45/96
s 10
usemtl initialShadingGroup
f 26/66/93 27/68/97 43/46/98 42/44/94
s 11
f 28/69/99 31/70/95 40/45/96 44/47/100
s 13
f 56/71/101 57/72/102 58/73/103 59/74/104 60/75/105
f 62/76/106 61/77/107 63/78/108 64/79/109
usemtl lambert3SG
f 59/74/104 58/73/103 61/77/107 62/80/106
usemtl initialShadingGroup
f 62/80/106 64/79/109 65/81/110 66/82/111
s 14
f 45/83/112 51/84/113 55/85/114 54/86/115 46/87/116
f 53/88/117 48/89/118 47/90/119 52/91/120
usemtl lambert3SG
f 55/85/114 53/88/117 52/91/120 54/86/115
usemtl initialShadingGroup
f 53/88/117 50/92/121 49/93/122 48/89/118
s off
f 45/94/123 46/95/124 57/72/125 56/71/126
s 16
f 46/95/127 54/96/128 58/73/129 57/72/130
s 17
f 55/97/131 51/98/132 60/75/133 59/74/134
s off
f 51/98/135 45/94/136 56/71/137 60/75/138
s 16
f 52/99/139 47/100/140 63/78/141 61/77/142
f 47/100/140 48/101/143 64/79/144 63/78/141
usemtl lambert3SG
f 54/96/128 52/99/139 61/77/142 58/73/129
s 17
f 53/102/145 55/97/131 59/74/134 62/80/146
s 16
usemtl initialShadingGroup
f 48/101/143 49/103/147 65/81/148 64/79/144
s 17
f 50/104/149 53/105/145 62/80/146 66/82/150
s 19
f 67/106/151 68/107/152 70/108/153 69/109/154
s off
usemtl lambert4SG
f 75/110/155 76/111/156 77/112/157 78/113/158
s 20
usemtl initialShadingGroup
f 71/114/159 72/115/160 74/116/161 73/117/162
s 21
f 68/107/163 74/118/164 72/119/165 70/108/166
s 22
f 73/120/167 67/106/168 69/109/169 71/121/170
s 19
usemtl lambert4SG
f 69/109/154 70/108/153 76/111/171 75/110/172
s 21
f 70/108/166 72/115/165 77/112/173 76/111/174
s 20
f 72/115/160 71/114/159 78/113/175 77/112/176
s 22
f 71/114/170 69/109/169 75/110/177 78/113/178
