<?xml version="1.0" encoding="utf-8"?>
<!-- Generator: Adobe Illustrator 19.0.0, SVG Export Plug-In . SVG Version: 6.00 Build 0)  -->
<svg version="1.1" id="Layer_1" xmlns="http://www.w3.org/2000/svg" xmlns:xlink="http://www.w3.org/1999/xlink" x="0px" y="0px"
	 viewBox="0 0 100 100" style="enable-background:new 0 0 100 100;" xml:space="preserve">
<style type="text/css">
	.st0{fill:#FBA30A;}
</style>
<path id="XMLID_14_" class="st0" d="M44.7,100.3c0-11.9,0-23.8,0-35.7c4.7,0,9.5,0,14.3,0c0,7.1,0,14.2,0,21.4c9.6,0,17.1,0,26.7,0
	c0-23.9,0-47.7,0-71.6c-9.5,0-17,0-26.6,0c0,7.1,0,14.3,0,21.4c-4.8,0-9.5,0-14.3,0c0-11.9,0-23.8,0-35.8C63.8,0,80.9,0,100,0
	c0,33.4,0,66.8,0,100.3C80.9,100.3,63.9,100.3,44.7,100.3z"/>
<path id="XMLID_13_" class="st0" d="M25.2,56.5c5.3,5.3,10.5,10.5,15.7,15.7c-3.2,3.2-6.4,6.4-9.5,9.5C21,71.2,10.5,60.7,0,50.2
	c10.5-10.5,21-21,31.4-31.4c3,3,6.2,6.2,9.3,9.3c-5.1,5.1-10.3,10.3-15.7,15.7c17,0,29.4,0,46.3,0c0,4.3,0,8.4,0,12.7
	C54.5,56.5,42.1,56.5,25.2,56.5z"/>
</svg>
