<?xml version="1.0" encoding="utf-8"?>
<!-- Generator: Adobe Illustrator 19.0.0, SVG Export Plug-In . SVG Version: 6.00 Build 0)  -->
<svg version="1.1" id="Layer_1" xmlns="http://www.w3.org/2000/svg" xmlns:xlink="http://www.w3.org/1999/xlink" x="0px" y="0px"
	 viewBox="0 0 100 100" style="enable-background:new 0 0 100 100;" xml:space="preserve">
<style type="text/css">
	.st0{fill:#FBA30A;}
</style>
<path id="XMLID_4_" class="st0" d="M97,40.5c-1.1-0.3-6.4-1.2-9.3-1.7c-0.8-2.6-1.8-5.2-3.1-7.6c1.7-2.4,4.8-6.8,5.4-7.8
	c0.8-1.3,1.2-3.1,0-4.2L80.8,10c-1.2-1.2-2.9-0.8-4.2,0c-0.9,0.6-5.4,3.7-7.8,5.4c-2.4-1.3-4.9-2.3-7.6-3.1
	c-0.5-2.9-1.4-8.2-1.7-9.3c-0.4-1.5-1.3-3-3-3h-13c-1.7,0-2.6,1.5-3,3c-0.3,1.1-1.2,6.4-1.7,9.3c-2.6,0.8-5.2,1.8-7.6,3.1
	c-2.4-1.7-6.8-4.8-7.8-5.4c-1.3-0.8-3.1-1.2-4.2,0L10,19.2c-1.2,1.2-0.8,2.9,0,4.2c0.6,0.9,3.7,5.4,5.4,7.8
	c-1.3,2.4-2.3,4.9-3.1,7.6c-2.9,0.5-8.2,1.4-9.3,1.7c-1.5,0.4-3,1.3-3,3v13c0,1.7,1.5,2.6,3,3c1.1,0.3,6.4,1.2,9.3,1.7
	c0.8,2.6,1.8,5.2,3.1,7.6c-1.7,2.4-4.8,6.8-5.4,7.8c-0.8,1.3-1.2,3.1,0,4.2l9.2,9.2c1.2,1.2,2.9,0.8,4.2,0c0.9-0.6,5.4-3.7,7.8-5.4
	c2.4,1.3,4.9,2.3,7.6,3.1c0.5,2.9,1.4,8.2,1.7,9.3c0.4,1.5,1.3,3,3,3h13c1.7,0,2.6-1.5,3-3c0.3-1.1,1.2-6.4,1.7-9.3
	c2.6-0.8,5.2-1.8,7.6-3.1c2.4,1.7,6.8,4.8,7.8,5.4c1.3,0.8,3.1,1.2,4.2,0l9.2-9.2c1.2-1.2,0.8-2.9,0-4.2c-0.6-0.9-3.7-5.4-5.4-7.8
	c1.3-2.4,2.3-4.9,3.1-7.6c2.9-0.5,8.2-1.4,9.3-1.7c1.5-0.4,3-1.3,3-3v-13C100,41.8,98.5,40.9,97,40.5z M50,66.3
	c-9,0-16.3-7.3-16.3-16.3S41,33.7,50,33.7S66.3,41,66.3,50S59,66.3,50,66.3z"/>
</svg>
