<?xml version="1.0" encoding="utf-8"?>
<!-- Generator: Adobe Illustrator 19.0.0, SVG Export Plug-In . SVG Version: 6.00 Build 0)  -->
<svg version="1.1" xmlns="http://www.w3.org/2000/svg" xmlns:xlink="http://www.w3.org/1999/xlink" x="0px" y="0px"
	 viewBox="1187 -6.9 2874.5 513.9" style="enable-background:new 1187 -6.9 2874.5 513.9;" xml:space="preserve">
<style type="text/css">
	.st0{fill:#FFFFFF;}
</style>
<path id="L00" class="st0" d="M1208.1,452.3c0-39.6,2.7-78.7,1.9-118.5c-1-48.1-1.1-97,0.3-145c0.7-23.9,0.9-47.6-0.1-71.5
	c-0.5-12-1-24.1-1.3-36.1c-0.2-9.4-1.9-20.7,3-29.1c9.6-16.4,30.1-13.1,46.1-12.5c19.1,0.6,38-1,57.1-0.3
	c42.6,1.5,84.6-5,121.4,22.1c35.6,26.2,50.2,77.5,50.8,120.3c0.6,45.5-3.2,94.9-29.8,133.1c-25.7,37.1-59.7,52.8-103.9,52.8
	c-17.1,0-34.9-0.8-36.9,21c-2.2,23.6,7.1,50,2.1,73.3c-4.9,23.1-40.2,11.6-57.1,11.8C1238.7,473.7,1208.1,486.3,1208.1,452.3z
	 M1319,221.5c0,14.1,6.3,33.5,22.5,36.1c12.2,1.9,24.4-7.5,29.2-18.2c4.8-10.6,2.6-22.4,2.5-33.6c-0.1-12.5,2-25.4-1.2-37.7
	c-7.1-26.9-42.7-37.6-51.1-5.7C1316,181,1319,202.4,1319,221.5z"/>
<path id="L01" class="st0" d="M1513.3,246.2c0-34.8-0.6-69.8,0.6-104.5c0.7-20.9,2.2-41.3,0-62.1c-1.6-15.3-3.2-34.8,15-38.2
	c11.3-2.2,24.3-0.6,35.8-0.6c11.3,0,23.3-1.7,34.5-0.6c20.2,2,19.2,19.2,17.6,34.8c-2.2,20.5-1.5,40.8-1.1,61.4
	c1.3,70.2,1.3,140.9,1.3,211.1c0,32.5,0.2,64.8,1.3,97.3c0.6,17.5-1,31.4-20.8,31.7c-15.5,0.2-31-1.7-46.4-0.9
	c-19.6,1-36.9,2-37-22.5c-0.1-24.4,1.7-48.7,1-73.1C1513.8,335.5,1513.3,290.6,1513.3,246.2z"/>
<path id="L02" class="st0" d="M1644.6,381.3c0-21.6-0.9-46,7.5-66.3c9.3-22.4,28.1-37.4,49.6-46.9c18-8,31.5-10.4,50.9-10.1
	c13,0.2,54.3,5.8,39.7-21.3c-8.1-15.2-43.9-13.3-59-11.5c-16.1,1.9-47.4,23.2-61.7,9.5c-11.5-11-5.1-35.4-5.7-49.7
	c-0.3-8.1-2.7-18.3,0.6-25.9c4.5-10.4,15.8-12.3,25.7-14.3c52.5-10.7,105.3-18.2,156.5,2.8c21.7,8.9,38.2,22.6,43.6,46.1
	c4.7,20.7,2.2,43,1.5,64c-1.3,39.1,2.7,78.4,0.9,117.5c-0.9,20.5-2.4,40.6-1.2,61.1c0.5,8.3,3.4,20,0.4,27.9
	c-3.7,9.9-14.2,10.4-23.4,10.4c-10.8,0-21.5-0.8-32.3-0.3c-9.6,0.5-26.4,5.2-34.5-1.2c-9.5-7.4-3.8-15.1-17.4-5.8
	c-11.3,7.8-24.3,10.9-37.8,11.8c-26.7,1.8-53.1-2.7-73-22C1654.5,436.6,1644.6,410.5,1644.6,381.3z M1745.3,370.3
	c0,16.3,11.1,34.3,29.6,30c17.2-4,20.7-25.4,19.3-40.4c-1.3-14.6-8.3-31-25.8-27.4C1749.8,336.3,1745.3,354,1745.3,370.3z"/>
<path id="L03" class="st0" d="M1919.4,336.2c0-67.6,1.6-147.8,66.5-187.4c14.8-9.1,31.6-14.2,48.9-16c12-1.3,39.2-4.4,49.5,4.7
	c9.8,8.7,4.8,30.1,4.5,41.3c-0.4,10.6,0.3,21,0.3,31.6c0,10.4,2,23.1-8.8,28.4c-17.6,8.6-33.3-2.7-46.6,16.1
	c-8.2,11.6-9.5,25.6-10.1,39.4c-0.7,16.4-2.6,34.9,3.2,50.6c5.9,16,18.5,27.1,35.8,28.2c19.5,1.3,25.9,6.6,24.8,26.9
	c-0.7,14.6-0.8,29.3-0.6,44c0.2,15.2,2.2,30.1-15.7,35.1c-16.5,4.6-44,1.5-60.7-1.4c-17.3-3-35.2-11-48-23.1
	C1930.6,424.7,1919.4,377.9,1919.4,336.2z"/>
<path id="L04" class="st0" d="M2113.1,313.4c0-46.1-1.5-98.3,29.5-135.7c31.4-37.9,90.5-45,136.2-37.4c44.4,7.4,76.3,37.8,88.9,80.3
	c7.6,25.4,4.7,50.4,4.5,76.4c-0.1,16.3,2.5,30.3-11,42c-8.7,7.5-15.3,7.2-25.9,6.5c-10.3-0.7-20.4,0.9-30.7,1.4
	c-19.5,1.1-38.2-1.4-57.5-1.9c-7.3-0.2-18-1.2-22.3,5.7c-5.6,8.8-0.4,25.6,6.2,32.4c10.2,10.4,33.2,12.7,47.6,12.5
	c11.3-0.1,23.1-1.6,34.2-4c9.8-2.2,18.8-8.1,28.6-9.4c28.5-3.7,23.9,27.7,24.3,46.5c0.2,12.4,4.1,27.9-6.5,36.9
	c-15.8,13.5-47.7,10.5-67,11.6c-24.1,1.4-48.9,3.1-72.8-1c-12.3-2.1-25.5-5.1-37.1-9.7c-9.7-3.9-17.2-11.8-25.1-18.5
	C2117.8,415,2113.1,361.9,2113.1,313.4z M2217.3,260.9c0,23.2,21.7,18.2,39,17.8c18.9-0.4,16.9-14,16.5-29.1c-0.5-18.4-8-43.9-32-37
	c-10,2.9-13.1,7.6-15.9,16.9C2222,239,2217.3,251,2217.3,260.9z"/>
<path id="L05" class="st0" d="M2401.7,452.3c0-26.5,2.9-53.4,3.6-80c1-37-3-74-1.1-111c1.9-38.7-1.1-76.8-0.7-115.5
	c0.2-15,1.2-30.1,1.2-45.1c0-14.2-5.9-34-0.8-47.6c6.1-16.3,28.5-11.8,41.9-11.1c17,0.8,34.9-3.3,51.7-1.1
	c20.4,2.7,17.3,22.8,15.9,38.5c-1.6,17.8-0.9,35.2-0.4,53.1c0.4,15-1.1,30.1-0.5,45.1c0.9,21.8,14.9,27.1,35.8,24.7
	c21.2-2.4,21.2-20.1,22-37.9c1-20.1-1.8-40.1-1.2-60.2c0.3-11.4,0-22.3-0.9-33.7c-1.9-21.8,6.9-30.8,28.9-29.4
	c16.6,1,32.4,1.2,49,0.3c15-0.9,31.1,0,34.8,17.4c3.2,15.3-1.5,34-1.8,49.6c-0.3,14.5,0.3,29.1-0.1,43.6c-1,36.8-0.8,73.4-1.1,110.2
	c-0.4,36.4,1.9,72.4,2.4,108.7c0.2,15-0.6,29.9-0.6,44.9c0,13.1,3.7,26.5,2.2,39.5c-2.5,21.1-15.7,21.5-33.5,20.1
	c-18.1-1.4-35.7,1.5-53.8,1.6c-35.4,0.3-22.4-41.7-22.7-65.2c-0.3-18.1,0.6-36.1,1.3-54.1c0.7-18.3,2.1-42.6-20.9-45.8
	c-8.1-1.1-20.8-1.2-27.9,3.3c-8.8,5.7-8.8,15.8-9.8,25.4c-1.7,17.9-1.2,35.6-0.6,53.6c0.5,16.6-1.4,33.2-0.6,49.8
	c0.4,8.6,3.1,18.9-2.5,26.4c-7.3,9.6-17.7,6.9-27.8,6c-15.5-1.4-31.8-0.2-47.2,0.8C2416.6,478.2,2401.7,475,2401.7,452.3z"/>
<path id="L06" class="st0" d="M2717.1,343.7c-3-30.9-1.6-64.8,3.6-95.3c4.8-28.3,11.3-56.9,29.2-80.1
	c40.2-51.9,136.4-54.9,181.9-8.9c47.5,48,44.4,126.5,37,188.9c-3.8,31.9-9.6,65.2-29.1,91.7c-19.4,26.3-49.3,40.7-81.6,42.9
	c-37.9,2.6-77.7-3.7-104.8-32.3C2725.9,421.6,2720.7,381.7,2717.1,343.7C2716.9,341.6,2717.3,345.9,2717.1,343.7z M2818.1,329.8
	c0,13.5,0.2,34.1,9.7,44.8c10.7,12,27.4,4.9,33.9-7.7c6.7-13.1,6-31.2,6.3-45.6c0.3-16.7,0.5-33.5,0.1-50.2
	c-0.3-12.9-1.4-32.4-13.1-40.6c-15.5-10.9-27.8,5.8-32.1,19.2C2815,274.5,2818.1,303.9,2818.1,329.8z"/>
<path id="L07" class="st0" d="M3002.8,246.2c0-34.8-0.6-69.8,0.6-104.5c0.7-20.9,2.2-41.3,0-62.1c-1.6-15.3-3.2-34.8,15-38.2
	c11.3-2.2,24.3-0.6,35.8-0.6c11.3,0,23.3-1.7,34.5-0.6c20.2,2,19.2,19.2,17.6,34.8c-2.2,20.5-1.5,40.8-1.1,61.4
	c1.3,70.2,1.3,140.9,1.3,211.1c0,32.5,0.2,64.8,1.3,97.3c0.6,17.5-1,31.4-20.8,31.7c-15.5,0.2-31-1.7-46.4-0.9
	c-19.6,1-36.9,2-37-22.5c-0.1-24.4,1.7-48.7,1-73.1C3003.2,335.5,3002.8,290.6,3002.8,246.2z"/>
<path id="L08" class="st0" d="M3141,326.2c-1.3-47.8-2-103.9,23.5-146.3c13.1-21.9,34.8-38.6,59.5-45.2c11.6-3.1,23.2-3.1,34.9-1
	c5.5,1,11.2,2.1,16.3,4.4c3.7,1.6,8.9,7.3,12.2,8.2c8.6,2.3,6.2-12,6.3-18.3c0.2-12.2,0-24.6-0.8-36.8c-1.2-17.7-8.6-44.7,15.3-49.6
	c17.5-3.6,37.4-0.6,55.2-1.2c7.2-0.2,18.3-4.2,24.6,1.2c6.7,5.7,6,20,5.4,27.9c-2.7,34.6-2.2,69.4-2.1,104.2
	c0.2,41-0.6,82.1,0.5,123.1c1.2,44.1-3,88.1-1.6,132.2c0.5,15.3,7.2,45.4-15.2,47.1c-13.6,1-28.5-1.5-42.3-1.2
	c-8.6,0.2-27.4,6-33.9-2.6c-2.4-3.1,0-9.7-5.1-10.4c-2.3-0.3-7.7,5.8-9.8,7c-20.3,11.8-48.6,12.3-70.4,5.5
	C3154.2,455.6,3142.5,379.6,3141,326.2C3140.8,318.7,3141.2,333.6,3141,326.2z M3240.8,302c0,18.9-3.8,62.9,19.8,69.8
	c26.9,7.7,30.2-35.4,31.6-52.1c1.1-13.2-0.4-26.9-0.8-40.1c-0.4-11.9-2.8-28.3-12.8-36.3C3248.4,219.1,3240.8,286.8,3240.8,302z"/>
<path id="L09" class="st0" d="M3422.4,313.4c0-46.1-1.5-98.3,29.5-135.7c31.4-37.9,90.5-45,136.2-37.4c44.4,7.4,76.3,37.8,88.9,80.3
	c7.6,25.4,4.7,50.4,4.5,76.4c-0.1,16.3,2.5,30.3-11,42c-8.7,7.5-15.3,7.2-25.9,6.5c-10.3-0.7-20.4,0.9-30.7,1.4
	c-19.5,1.1-38.2-1.4-57.5-1.9c-7.3-0.2-18-1.2-22.3,5.7c-5.6,8.8-0.4,25.6,6.2,32.4c10.2,10.4,33.2,12.7,47.6,12.5
	c11.3-0.1,23.1-1.6,34.2-4c9.8-2.2,18.8-8.1,28.6-9.4c28.5-3.7,23.9,27.7,24.2,46.5c0.2,12.4,4.1,27.9-6.5,36.9
	c-15.8,13.5-47.7,10.5-67,11.6c-24.1,1.4-48.9,3.1-72.8-1c-12.3-2.1-25.5-5.1-37.1-9.7c-9.7-3.9-17.2-11.8-25.1-18.5
	C3427.1,415,3422.4,361.9,3422.4,313.4z M3526.7,260.9c0,23.2,21.7,18.2,39,17.8c18.9-0.4,16.8-14,16.5-29.1c-0.5-18.4-8-43.9-32-37
	c-10,2.9-13.1,7.6-15.9,16.9C3531.3,239,3526.7,251,3526.7,260.9z"/>
<path id="L10" class="st0" d="M3709.5,455.3c0-19.7,1.6-39.1,1.1-58.9c-0.4-16.7,0-33.2,0.7-49.9c1.9-40.2-2.3-80.3-0.2-120.4
	c1-19.8-0.2-39.6-0.1-59.4c0-17.5,2-32.6,23.1-32.2c19.3,0.4,37.9,2.6,57.4,1.2c7-0.5,15.7-1.7,20.6,4.8c5.1,6.6-0.4,13,1.3,19.9
	c2.1,8.5,5.8,3.2,9.6-1.8c6.2-8.2,11.4-16.6,20.8-21.5c8.8-4.6,22.7-7.9,31.4-1.6c9.2,6.7,5.9,17.2,5.4,26.8
	c-0.6,13.3-0.2,26.8-0.5,40.1c-0.4,15.2,4.8,34.8-0.2,49.4c-6.5,18.6-28.3,5.1-42.4,10.4c-17.4,6.7-23,23.4-23.5,40.3
	c-0.5,19.1,0.5,38.2,0,57.3c-0.5,19.1-2.1,38.1-2.1,57.2c0,9.2,0,18.2,1,27.2c0.8,7.3,3,18-0.8,24.8c-8,14.4-40.5,7.5-54.3,7.5
	C3736.3,476.3,3709.5,485.3,3709.5,455.3z"/>
<path id="F01" class="st0" d="M4059.6-6.9c-0.9,2.1-1.6,4.3-2.8,6.1c-13.8,21.5-27.7,43-41.6,64.5c-0.5,0.8-0.8,1.7-1.7,3.6
	c16.1,0,31.6,0,48,0c-1.1,2.1-1.4,3.2-2,3.9c-10.9,12-22,23.9-32.8,36c-16.3,18.1-32.3,36.3-48.6,54.4c-7.5,8.4-15.2,16.6-22.8,24.9
	c-2.6,2.9-5.2,5.8-7.8,8.8c-0.5-0.3-0.9-0.6-1.4-0.8c13.2-28.3,26.4-56.5,40.1-85.8c-16.5,0-31.9,0-48.2,0
	c2.1-6.1,3.7-11.3,5.6-16.5c8.1-21.9,16.3-43.8,24.3-65.7c4.1-11.1,7.9-22.3,11.8-33.5C4006.3-6.9,4033-6.9,4059.6-6.9z"/>
</svg>
