<?xml version="1.0" encoding="utf-8"?>
<!-- Generator: Adobe Illustrator 19.0.0, SVG Export Plug-In . SVG Version: 6.00 Build 0)  -->
<svg version="1.1" id="Layer_1" xmlns="http://www.w3.org/2000/svg" xmlns:xlink="http://www.w3.org/1999/xlink" x="0px" y="0px"
	 viewBox="0 0 100 100" style="enable-background:new 0 0 100 100;" xml:space="preserve">
<style type="text/css">
	.st0{fill:#DCD2B7;}
	.st1{fill:#FAA31E;enable-background:new    ;}
	.st2{fill:#FAA21B;}
</style>
<circle id="XMLID_13_" class="st0" cx="50" cy="50" r="50"/>
<polygon id="XMLID_154_" class="st1" points="71.8,23.4 69.9,21.5 63.2,21.4 58,26.6 58.1,33.3 32.9,58.5 26.2,58.4 21,63.6 
	21.1,70.3 23,72.1 29.4,65.7 34.4,70.7 28,77.1 29.2,78.3 35.8,78.4 41.1,73.2 41,66.6 66.2,41.4 72.8,41.5 78.1,36.2 78,29.6 
	76.7,28.3 70.3,34.8 65.3,29.8 "/>
<polygon id="XMLID_134_" class="st1" points="78.3,70.1 39.1,30.9 45.2,24.9 40.9,20.7 28.9,20.7 14.8,34.8 25,45.1 31.1,39 
	70.2,78.2 "/>
<g id="XMLID_63_">
	<polygon id="XMLID_17_" class="st2" points="44.3,65.8 44.3,55.2 33.6,55.2 33.6,44.6 44.3,44.6 44.3,34 54.8,34 54.8,44.6 
		65.4,44.6 65.4,55.2 54.8,55.2 54.8,65.8 	"/>
	<path id="XMLID_14_" class="st0" d="M53.3,35.5v10.6h10.6v7.6H53.3v10.6h-7.6V53.7H35.1v-7.6h10.6V35.5H53.3 M56.3,32.5h-3h-7.6h-3
		v3v7.6h-7.6h-3v3v7.6v3h3h7.6v7.6v3h3h7.6h3v-3v-7.6h7.6h3v-3v-7.6v-3h-3h-7.6v-7.6V32.5L56.3,32.5z"/>
</g>
</svg>
