<?xml version="1.0" encoding="utf-8"?>
<!-- Generator: Adobe Illustrator 19.0.0, SVG Export Plug-In . SVG Version: 6.00 Build 0)  -->
<svg version="1.1" id="Layer_1" xmlns="http://www.w3.org/2000/svg" xmlns:xlink="http://www.w3.org/1999/xlink" x="0px" y="0px"
	 viewBox="0 0 100 100" style="enable-background:new 0 0 100 100;" xml:space="preserve">
<style type="text/css">
	.st0{fill:#DCD2B7;}
	.st1{fill:#23B6EA;}
	.st2{fill:#00A5D9;}
	.st3{fill:#0091BE;}
	.st4{fill:#FAA21B;}
</style>
<circle id="XMLID_7_" class="st0" cx="50" cy="50" r="50"/>
<path id="XMLID_28_" class="st1" d="M5.5,72.8h88.9c2.7-5.2,4.4-10.8,5.2-16.8c-0.2,0-0.4,0-0.7,0c-5.4,0-9.8-4.4-9.8-9.8
	c0,5.4-4.4,9.8-9.8,9.8s-9.8-4.4-9.8-9.8c0,5.4-4.4,9.8-9.8,9.8S50,51.7,50,46.3c0,5.4-4.4,9.8-9.8,9.8s-9.8-4.4-9.8-9.8
	c0,5.4-4.4,9.8-9.8,9.8s-9.8-4.4-9.8-9.8c0,5.4-4.4,9.8-9.8,9.8c-0.2,0-0.4,0-0.7,0C1.1,62,2.9,67.7,5.5,72.8z"/>
<path id="XMLID_37_" class="st2" d="M96.8,67.6c-4.4-1-7.6-4.9-7.6-9.5c0,5.4-4.4,9.8-9.8,9.8s-9.8-4.4-9.8-9.8
	c0,5.4-4.4,9.8-9.8,9.8S50,63.4,50,58c0,5.4-4.4,9.8-9.8,9.8s-9.8-4.4-9.8-9.8c0,5.4-4.4,9.8-9.8,9.8s-9.8-4.4-9.8-9.8
	c0,4.7-3.3,8.6-7.6,9.5c1,2.7,2.3,5.4,3.8,7.9l43,7l43.1-7C94.5,72.9,95.8,70.3,96.8,67.6z"/>
<path id="XMLID_27_" class="st3" d="M73,77.2c-2.1-1.8-3.4-4.5-3.4-7.4c0,5.4-4.4,9.8-9.8,9.8S50,75.2,50,69.8
	c0,5.4-4.4,9.8-9.8,9.8s-9.8-4.4-9.8-9.8c0,3.2-1.5,6-3.9,7.8L50,86.3L73,77.2z"/>
<path id="XMLID_33_" class="st4" d="M96.3,68.9H79.5c-5.7,0-9.5,3-13.3,5.8c-4.3,3.3-8.4,6.4-16.2,6.4S38.1,78,33.8,74.7
	c-3.8-2.9-7.6-5.8-13.3-5.8H3.7c1.4,3.3,3.1,6.5,5.1,9.4h11.7c2.4,0,4.3,1.4,7.6,3.9c4.6,3.5,11,8.3,21.9,8.3
	c11,0,17.3-4.8,21.9-8.3c3.3-2.5,5.2-3.9,7.6-3.9h11.7C93.2,75.4,94.9,72.2,96.3,68.9z"/>
<g id="XMLID_2_">
	<polygon id="XMLID_22_" class="st4" points="73,35.4 50,58.4 27,35.4 33.6,28.9 44.4,39.6 44.4,12.5 55.6,12.5 55.6,39.6 
		66.4,28.9 	"/>
</g>
</svg>
