<?xml version="1.0" encoding="utf-8"?>
<!-- Generator: Adobe Illustrator 19.0.0, SVG Export Plug-In . SVG Version: 6.00 Build 0)  -->
<svg version="1.1" id="Layer_1" xmlns="http://www.w3.org/2000/svg" xmlns:xlink="http://www.w3.org/1999/xlink" x="0px" y="0px"
	 viewBox="0 0 100 100" style="enable-background:new 0 0 100 100;" xml:space="preserve">
<style type="text/css">
	.st0{fill:#DCD2B7;}
	.st1{fill:#8DC63F;}
	.st2{fill:#FFFFFF;}
	.st3{opacity:0.1;}
	.st4{fill:#FAA21B;}
</style>
<circle id="XMLID_11_" class="st0" cx="50" cy="50" r="50"/>
<path id="XMLID_19_" class="st1" d="M43.6,73.8L21.1,38.9L3.3,67.8c2.7,7.1,6.9,13.4,12.3,18.5L43.6,73.8z"/>
<polygon id="XMLID_22_" class="st2" points="21.1,38.9 10.1,56.8 11.4,61 19.6,56 21.9,61 29.2,61 43,72.9 "/>
<path id="XMLID_20_" class="st3" d="M13.2,83.8l7.9-44.9l0,0L3.3,67.8C5.6,73.8,9,79.2,13.2,83.8z"/>
<path id="XMLID_18_" class="st1" d="M75.3,20.1L43.4,71.7l41.5,14.2c7.6-7.4,12.9-17.2,14.6-28.2L75.3,20.1z"/>
<polygon id="XMLID_25_" class="st2" points="75.3,20.1 64.2,37.9 67.6,35.6 71.5,41.4 80.8,42.2 83.5,37.5 91.3,45.1 "/>
<polygon id="XMLID_4_" class="st3" points="43.4,71.7 65.1,79.1 75.3,20.1 75.3,20.1 49.3,62 "/>
<g id="XMLID_30_">
	<polygon id="XMLID_29_" class="st4" points="73,35.9 50,12.9 27,35.9 33.6,42.5 44.4,31.7 44.4,58.8 55.6,58.8 55.6,31.7 
		66.4,42.5 	"/>
</g>
<path id="XMLID_23_" class="st4" d="M79.5,80.9c-2.4,0-4.3-1.4-7.6-3.9c-4.6-3.5-11-8.3-21.9-8.3c-11,0-17.3,4.8-21.9,8.3
	c-3.3,2.5-5.2,3.9-7.6,3.9h-9.8c2.8,3.6,6.1,6.7,9.7,9.4h0.1c5.7,0,9.5-3,13.3-5.8c4.3-3.3,8.4-6.4,16.2-6.4
	c7.8,0,11.9,3.1,16.2,6.4c3.8,2.9,7.6,5.8,13.3,5.8h0.1c3.7-2.7,6.9-5.9,9.7-9.4H79.5z"/>
</svg>
