<?xml version="1.0" encoding="utf-8"?>
<!-- Generator: Adobe Illustrator 19.0.0, SVG Export Plug-In . SVG Version: 6.00 Build 0)  -->
<svg version="1.1" id="Layer_1" xmlns="http://www.w3.org/2000/svg" xmlns:xlink="http://www.w3.org/1999/xlink" x="0px" y="0px"
	 viewBox="0 0 100 100" style="enable-background:new 0 0 100 100;" xml:space="preserve">
<style type="text/css">
	.st0{fill:#DCD2B7;}
	.st1{fill:#FAA21B;}
	.st2{opacity:0.66;fill:#FAA21B;}
	.st3{opacity:0.33;fill:#FAA21B;}
</style>
<circle id="XMLID_3_" class="st0" cx="50" cy="50" r="50"/>
<path id="XMLID_6_" class="st1" d="M49.6,57.4c-3.9-0.2-7.1-3.4-7.1-7.4c0-4.1,3.3-7.5,7.5-7.5c4,0,7.2,3.2,7.4,7.1l4.6,1.9
	c0.1-0.5,0.1-1,0.1-1.5c0-6.7-5.5-12.2-12.2-12.2c-6.7,0-12.2,5.5-12.2,12.2c0,6.7,5.5,12.2,12.2,12.2c0.5,0,1,0,1.5-0.1L49.6,57.4z
	"/>
<path id="XMLID_15_" class="st2" d="M53.4,66.9c-1.1,0.2-2.3,0.3-3.4,0.3c-9.5,0-17.3-7.7-17.3-17.3c0-9.5,7.7-17.3,17.3-17.3
	c9.5,0,17.3,7.7,17.3,17.3c0,1.2-0.1,2.3-0.3,3.4l4.4,1.8c0.4-1.7,0.7-3.4,0.7-5.2c0-12.1-9.9-22-22-22s-22,9.9-22,22s9.9,22,22,22
	c1.8,0,3.5-0.2,5.2-0.7L53.4,66.9z"/>
<path id="XMLID_8_" class="st3" d="M57.1,76.1c-2.3,0.6-4.7,1-7.1,1c-14.9,0-27.1-12.1-27.1-27.1c0-14.9,12.1-27.1,27.1-27.1
	c14.9,0,27.1,12.1,27.1,27.1c0,2.5-0.3,4.9-1,7.1l4.4,1.8c0.8-2.8,1.3-5.8,1.3-8.9c0-17.5-14.2-31.8-31.8-31.8S18.2,32.5,18.2,50
	S32.5,81.8,50,81.8c3.1,0,6.1-0.5,8.9-1.3L57.1,76.1z"/>
<polygon id="XMLID_5_" class="st1" points="71.1,71.1 84.5,65.6 52.9,52.9 65.6,84.5 "/>
</svg>
